<svg width="106" height="71" viewBox="0 0 106 71" fill="none" xmlns="http://www.w3.org/2000/svg">
<path d="M40.648 60C39.4533 60 38.4933 59.5093 37.768 58.528L22.984 39.072L28.808 33.12L44.104 53.344C44.7013 54.1547 45 55.0293 45 55.968C45 57.1627 44.552 58.144 43.656 58.912C42.76 59.6373 41.7573 60 40.648 60ZM41.416 14.88C42.44 14.88 43.272 15.3067 43.912 16.16C44.5947 16.9707 44.936 17.8027 44.936 18.656C44.936 19.552 44.552 20.384 43.784 21.152L16.968 46.816L16.648 37.664L38.28 16.352C39.2613 15.3707 40.3067 14.88 41.416 14.88ZM13.768 60C12.5733 60 11.6133 59.6373 10.888 58.912C10.1627 58.144 9.8 57.2053 9.8 56.096V19.104C9.8 17.9947 10.184 17.0773 10.952 16.352C11.72 15.584 12.7013 15.2 13.896 15.2C15.0907 15.2 16.0293 15.584 16.712 16.352C17.4373 17.0773 17.8 17.9947 17.8 19.104V56.096C17.8 57.2053 17.4373 58.144 16.712 58.912C15.9867 59.6373 15.0053 60 13.768 60ZM81.16 17.376C82.2693 17.9307 82.9093 18.8053 83.08 20C83.2933 21.1947 82.9947 22.2827 82.184 23.264C81.6293 24.032 80.904 24.4587 80.008 24.544C79.1547 24.6293 78.28 24.4587 77.384 24.032C76.36 23.5627 75.272 23.2 74.12 22.944C73.0107 22.688 71.8373 22.56 70.6 22.56C68.296 22.56 66.2267 22.9227 64.392 23.648C62.6 24.3733 61.064 25.4187 59.784 26.784C58.504 28.1067 57.5227 29.6853 56.84 31.52C56.2 33.3547 55.88 35.3813 55.88 37.6C55.88 40.2027 56.2427 42.464 56.968 44.384C57.736 46.304 58.7813 47.904 60.104 49.184C61.4267 50.464 62.984 51.424 64.776 52.064C66.568 52.6613 68.5093 52.96 70.6 52.96C71.752 52.96 72.904 52.8533 74.056 52.64C75.208 52.4267 76.3173 52.0427 77.384 51.488C78.28 51.0613 79.1547 50.912 80.008 51.04C80.904 51.168 81.6507 51.616 82.248 52.384C83.1013 53.4507 83.4 54.56 83.144 55.712C82.9307 56.8213 82.2907 57.632 81.224 58.144C80.1147 58.6987 78.9627 59.168 77.768 59.552C76.616 59.8933 75.4427 60.1493 74.248 60.32C73.0533 60.5333 71.8373 60.64 70.6 60.64C67.528 60.64 64.6053 60.1493 61.832 59.168C59.1013 58.1867 56.648 56.736 54.472 54.816C52.3387 52.896 50.6533 50.5067 49.416 47.648C48.1787 44.7467 47.56 41.3973 47.56 37.6C47.56 34.3147 48.1147 31.2853 49.224 28.512C50.376 25.7387 51.976 23.3493 54.024 21.344C56.1147 19.296 58.568 17.7173 61.384 16.608C64.2 15.456 67.272 14.88 70.6 14.88C72.4773 14.88 74.312 15.0933 76.104 15.52C77.896 15.9467 79.5813 16.5653 81.16 17.376ZM93.445 34.976C92.2077 34.976 91.2477 34.656 90.565 34.016C89.925 33.3333 89.605 32.3733 89.605 31.136V30.048C89.605 28.8107 89.925 27.872 90.565 27.232C91.2477 26.5493 92.2077 26.208 93.445 26.208H94.277C95.5143 26.208 96.453 26.5493 97.093 27.232C97.7757 27.872 98.117 28.8107 98.117 30.048V31.136C98.117 32.3733 97.7757 33.3333 97.093 34.016C96.453 34.656 95.5143 34.976 94.277 34.976H93.445ZM93.445 60C92.2077 60 91.2477 59.68 90.565 59.04C89.925 58.3573 89.605 57.3973 89.605 56.16V55.072C89.605 53.8347 89.925 52.896 90.565 52.256C91.2477 51.5733 92.2077 51.232 93.445 51.232H94.277C95.5143 51.232 96.453 51.5733 97.093 52.256C97.7757 52.896 98.117 53.8347 98.117 55.072V56.16C98.117 57.3973 97.7757 58.3573 97.093 59.04C96.453 59.68 95.5143 60 94.277 60H93.445Z" fill="white"/>
<path fill-rule="evenodd" clip-rule="evenodd" d="M5 5H101V9.52441H106V5V0H101H5H0V5V9.52441H5V5ZM5 62.3415H0V66V71H5H101H106V66V62.3415H101V66H5V62.3415Z" fill="#78C3D6"/>
</svg>
