<svg width="106" height="80" viewBox="0 0 84.8 64" fill="none" xmlns="http://www.w3.org/2000/svg">
    <path d="M40.648 64C39.4533 64 38.4933 63.5093 37.768 62.528L22.984 43.072L28.808 37.12L44.104 57.344C44.7013 58.1547 45 59.0293 45 59.968C45 61.1627 44.552 62.144 43.656 62.912C42.76 63.6373 41.7573 64 40.648 64ZM41.416 18.88C42.44 18.88 43.272 19.3067 43.912 20.16C44.5947 20.9707 44.936 21.8027 44.936 22.656C44.936 23.552 44.552 24.384 43.784 25.152L16.968 50.816L16.648 41.664L38.28 20.352C39.2613 19.3707 40.3067 18.88 41.416 18.88ZM13.768 64C12.5733 64 11.6133 63.6373 10.888 62.912C10.1627 62.144 9.8 61.2053 9.8 60.096V23.104C9.8 21.9947 10.184 21.0773 10.952 20.352C11.72 19.584 12.7013 19.2 13.896 19.2C15.0907 19.2 16.0293 19.584 16.712 20.352C17.4373 21.0773 17.8 21.9947 17.8 23.104V60.096C17.8 61.2053 17.4373 62.144 16.712 62.912C15.9867 63.6373 15.0053 64 13.768 64ZM81.16 21.376C82.2693 21.9307 82.9093 22.8053 83.08 24C83.2933 25.1947 82.9947 26.2827 82.184 27.264C81.6293 28.032 80.904 28.4587 80.008 28.544C79.1547 28.6293 78.28 28.4587 77.384 28.032C76.36 27.5627 75.272 27.2 74.12 26.944C73.0107 26.688 71.8373 26.56 70.6 26.56C68.296 26.56 66.2267 26.9227 64.392 27.648C62.6 28.3733 61.064 29.4187 59.784 30.784C58.504 32.1067 57.5227 33.6853 56.84 35.52C56.2 37.3547 55.88 39.3813 55.88 41.6C55.88 44.2027 56.2427 46.464 56.968 48.384C57.736 50.304 58.7813 51.904 60.104 53.184C61.4267 54.464 62.984 55.424 64.776 56.064C66.568 56.6613 68.5093 56.96 70.6 56.96C71.752 56.96 72.904 56.8533 74.056 56.64C75.208 56.4267 76.3173 56.0427 77.384 55.488C78.28 55.0613 79.1547 54.912 80.008 55.04C80.904 55.168 81.6507 55.616 82.248 56.384C83.1013 57.4507 83.4 58.56 83.144 59.712C82.9307 60.8213 82.2907 61.632 81.224 62.144C80.1147 62.6987 78.9627 63.168 77.768 63.552C76.616 63.8933 75.4427 64.1493 74.248 64.32C73.0533 64.5333 71.8373 64.64 70.6 64.64C67.528 64.64 64.6053 64.1493 61.832 63.168C59.1013 62.1867 56.648 60.736 54.472 58.816C52.3387 56.896 50.6533 54.5067 49.416 51.648C48.1787 48.7467 47.56 45.3973 47.56 41.6C47.56 38.3147 48.1147 35.2853 49.224 32.512C50.376 29.7387 51.976 27.3493 54.024 25.344C56.1147 23.296 58.568 21.7173 61.384 20.608C64.2 19.456 67.272 18.88 70.6 18.88C72.4773 18.88 74.312 19.0933 76.104 19.52C77.896 19.9467 79.5813 20.5653 81.16 21.376ZM93.445 38.976C92.2077 38.976 91.2477 38.656 90.565 38.016C89.925 37.3333 89.605 36.3733 89.605 35.136V34.048C89.605 32.8107 89.925 31.872 90.565 31.232C91.2477 30.5493 92.2077 30.208 93.445 30.208H94.277C95.5143 30.208 96.453 30.5493 97.093 31.232C97.7757 31.872 98.117 32.8107 98.117 34.048V35.136C98.117 36.3733 97.7757 37.3333 97.093 38.016C96.453 38.656 95.5143 38.976 94.277 38.976H93.445ZM93.445 64C92.2077 64 91.2477 63.68 90.565 63.04C89.925 62.3573 89.605 61.3973 89.605 60.16V59.072C89.605 57.8347 89.925 56.896 90.565 56.256C91.2477 55.5733 92.2077 55.232 93.445 55.232H94.277C95.5143 55.232 96.453 55.5733 97.093 56.256C97.7757 56.896 98.117 57.8347 98.117 59.072V60.16C98.117 61.3973 97.7757 62.3573 97.093 63.04C96.453 63.68 95.5143 64 94.277 64H93.445Z" fill="white"/>
    <path fill-rule="evenodd" clip-rule="evenodd" d="M5 10H101V14.5244H106V10V5H101H5H0V10V14.5244H5V10ZM5 67.3415H0V71V76H5H101H106V71V67.3415H101V71H5V67.3415Z" fill="#78C3D6"/>
</svg>
