<svg width="100" height="67" viewBox="0 0 100 67" fill="none" xmlns="http://www.w3.org/2000/svg">
<g clip-path="url(#clip0_200_232)">
<path d="M38.3472 56.6195C37.2201 56.6195 36.3144 56.1565 35.6302 55.2305L21.683 36.8706L27.1774 31.2539L41.6075 50.3385C42.171 51.1035 42.4528 51.9289 42.4528 52.8147C42.4528 53.9421 42.0302 54.8681 41.1849 55.5928C40.3396 56.2773 39.3937 56.6195 38.3472 56.6195ZM39.0717 14.0415C40.0377 14.0415 40.8226 14.4442 41.4264 15.2494C42.0705 16.0144 42.3925 16.7995 42.3925 17.6048C42.3925 18.4503 42.0302 19.2354 41.3057 19.9602L16.0075 44.1783L15.7057 35.5419L36.1132 15.4306C37.039 14.5046 38.0252 14.0415 39.0717 14.0415ZM12.9887 56.6195C11.8616 56.6195 10.9559 56.2773 10.2717 55.5928C9.58745 54.8681 9.24528 53.9823 9.24528 52.9355V18.0275C9.24528 16.9807 9.60755 16.115 10.3321 15.4306C11.0566 14.7058 11.9824 14.3435 13.1094 14.3435C14.2365 14.3435 15.122 14.7058 15.766 15.4306C16.4503 16.115 16.7925 16.9807 16.7925 18.0275V52.9355C16.7925 53.9823 16.4503 54.8681 15.766 55.5928C15.0818 56.2773 14.1559 56.6195 12.9887 56.6195ZM76.566 16.3969C77.6125 16.9203 78.2163 17.7457 78.3774 18.8731C78.5786 20.0004 78.2969 21.0272 77.5321 21.9532C77.0088 22.6779 76.3245 23.0806 75.4792 23.1611C74.6742 23.2415 73.8491 23.0806 73.0038 22.6779C72.0377 22.235 71.0113 21.8928 69.9245 21.6512C68.878 21.4096 67.771 21.2888 66.6038 21.2888C64.4302 21.2888 62.478 21.6311 60.7472 22.3155C59.0566 23 57.6075 23.9865 56.4 25.2749C55.1925 26.523 54.2667 28.0127 53.6226 29.744C53.0189 31.4754 52.717 33.3878 52.717 35.4815C52.717 37.9376 53.0592 40.0715 53.7434 41.8833C54.4679 43.6951 55.4541 45.205 56.7019 46.4129C57.9497 47.6208 59.4189 48.5267 61.1094 49.1306C62.8 49.6943 64.6314 49.9761 66.6038 49.9761C67.6906 49.9761 68.7774 49.8755 69.8641 49.6742C70.9509 49.4729 71.9975 49.1105 73.0038 48.5871C73.8491 48.1844 74.6742 48.0435 75.4792 48.1643C76.3245 48.2851 77.029 48.7079 77.5925 49.4326C78.3975 50.4392 78.6792 51.486 78.4377 52.5731C78.2365 53.6199 77.6327 54.3849 76.6264 54.8681C75.5799 55.3915 74.4931 55.8344 73.366 56.1968C72.2792 56.5188 71.1724 56.7604 70.0453 56.9215C68.9182 57.1228 67.771 57.2235 66.6038 57.2235C63.7057 57.2235 60.9484 56.7604 58.3321 55.8344C55.7559 54.9084 53.4415 53.5394 51.3887 51.7276C49.3761 49.9158 47.7861 47.6611 46.6189 44.9634C45.4516 42.2256 44.8679 39.0649 44.8679 35.4815C44.8679 32.3813 45.3912 29.5226 46.4377 26.9055C47.5245 24.2884 49.034 22.0337 50.966 20.1413C52.9384 18.2087 55.2528 16.719 57.9094 15.6722C60.566 14.5851 63.4642 14.0415 66.6038 14.0415C68.3748 14.0415 70.1057 14.2428 71.7962 14.6454C73.4868 15.0481 75.0767 15.6319 76.566 16.3969ZM88.1557 33.0053C86.9884 33.0053 86.0827 32.7034 85.4387 32.0994C84.8349 31.4552 84.533 30.5493 84.533 29.3817V28.355C84.533 27.1874 84.8349 26.3016 85.4387 25.6976C86.0827 25.0534 86.9884 24.7313 88.1557 24.7313H88.9406C90.1078 24.7313 90.9934 25.0534 91.5972 25.6976C92.2412 26.3016 92.5632 27.1874 92.5632 28.355V29.3817C92.5632 30.5493 92.2412 31.4552 91.5972 32.0994C90.9934 32.7034 90.1078 33.0053 88.9406 33.0053H88.1557ZM88.1557 56.6195C86.9884 56.6195 86.0827 56.3176 85.4387 55.7136C84.8349 55.0694 84.533 54.1635 84.533 52.9959V51.9692C84.533 50.8016 84.8349 49.9158 85.4387 49.3118C86.0827 48.6676 86.9884 48.3455 88.1557 48.3455H88.9406C90.1078 48.3455 90.9934 48.6676 91.5972 49.3118C92.2412 49.9158 92.5632 50.8016 92.5632 51.9692V52.9959C92.5632 54.1635 92.2412 55.0694 91.5972 55.7136C90.9934 56.3176 90.1078 56.6195 88.9406 56.6195H88.1557Z" fill="#E8F6FF"/>
<path fill-rule="evenodd" clip-rule="evenodd" d="M4.71698 4.71831H95.283V8.98782H100V4.71831V0H95.283H4.71698H0V4.71831V8.98782H4.71698V4.71831ZM4.71698 58.8293H0V62.2817V67H4.71698H95.283H100V62.2817V58.8293H95.283V62.2817H4.71698V58.8293Z" fill="#1379F3"/>
</g>
<defs>
<clipPath id="clip0_200_232">
<rect width="100" height="67" fill="white"/>
</clipPath>
</defs>
</svg>
