<?xml version="1.0" encoding="UTF-8"?>
<svg id="Layer_1" data-name="Layer 1" xmlns="http://www.w3.org/2000/svg" xmlns:xlink="http://www.w3.org/1999/xlink" viewBox="0 0 534.25 72.64">
  <defs>
    <style>
      .cls-1 {
        fill: url(#linear-gradient-2);
      }

      .cls-2 {
        fill: url(#linear-gradient-3);
      }

      .cls-3 {
        fill: url(#linear-gradient);
      }

      .cls-4 {
        fill: #ca7a00;
      }

      .cls-5 {
        opacity: .25;
      }
    </style>
    <linearGradient id="linear-gradient" x1="267.13" y1="142.77" x2="267.13" y2="-36.7" gradientUnits="userSpaceOnUse">
      <stop offset="0" stop-color="#a56c0b"/>
      <stop offset=".01" stop-color="#ad7816"/>
      <stop offset=".06" stop-color="#c79f3a"/>
      <stop offset=".1" stop-color="#dcbe57"/>
      <stop offset=".14" stop-color="#ebd46c"/>
      <stop offset=".19" stop-color="#f4e178"/>
      <stop offset=".22" stop-color="#f8e67d"/>
      <stop offset=".27" stop-color="#f4e077"/>
      <stop offset=".34" stop-color="#e8d068"/>
      <stop offset=".41" stop-color="#d6b64f"/>
      <stop offset=".45" stop-color="#c9a33d"/>
      <stop offset=".57" stop-color="#c38f1b"/>
      <stop offset=".75" stop-color="#e6c95c"/>
      <stop offset=".84" stop-color="#f8e67d"/>
      <stop offset=".86" stop-color="#f4e077"/>
      <stop offset=".9" stop-color="#e9d167"/>
      <stop offset=".94" stop-color="#d8b94c"/>
      <stop offset=".98" stop-color="#c19728"/>
      <stop offset="1" stop-color="#b48514"/>
    </linearGradient>
    <linearGradient id="linear-gradient-2" x1="263.75" y1="142.77" x2="263.75" y2="-36.7" xlink:href="#linear-gradient"/>
    <linearGradient id="linear-gradient-3" x1="263.75" y1="142.77" x2="263.75" y2="-36.7" xlink:href="#linear-gradient"/>
  </defs>
  <g class="cls-5">
    <g>
      <path class="cls-4" d="m532.75,72.64h-224.68c-.44,0-.86-.19-1.14-.53-.28-.33-.41-.78-.34-1.21l8.74-54.63-12.36,5.64,6.2,14.39c.11.25.14.51.11.78-.02.13-1.86,13.1-20.6,13.47-11.8.27-20.31-9.56-24.93-16.7-4.62,7.14-13.16,16.96-24.93,16.7-18.74-.37-20.58-13.34-20.59-13.47-.03-.27,0-.53.11-.78l6.2-14.39-12.36-5.64,8.74,54.63c.07.43-.05.88-.34,1.21-.29.33-.7.53-1.14.53H1.5c-.83,0-1.5-.67-1.5-1.5s.67-1.5,1.5-1.5h216.16l-8.9-55.65c-.09-.55.13-1.1.57-1.43.44-.33,1.03-.4,1.53-.17l16.25,7.42c.74.34,1.08,1.21.75,1.96l-6.6,15.33c.42,1.88,3.08,10.19,17.61,10.48.12,0,.24,0,.36,0,11.3,0,19.39-10.82,23.23-17.32.27-.46.76-.74,1.29-.74s1.02.28,1.29.74c3.88,6.57,12.08,17.54,23.58,17.32,14.51-.29,17.19-8.58,17.61-10.48l-6.6-15.33c-.32-.75.01-1.62.75-1.96l16.25-7.42c.5-.23,1.09-.16,1.53.17.44.34.66.88.57,1.43l-8.9,55.65h222.92c.83,0,1.5.67,1.5,1.5s-.67,1.5-1.5,1.5Z"/>
      <path class="cls-4" d="m263.75,67.1c-.43,0-.84-.18-1.12-.5l-7.95-8.94c-.5-.56-.51-1.41-.01-1.98l7.95-9.15c.28-.33.7-.52,1.13-.52h0c.43,0,.85.19,1.13.52l7.95,9.15c.49.57.49,1.42-.01,1.98l-7.95,8.94c-.28.32-.69.5-1.12.5Zm-5.95-10.45l5.95,6.69,5.95-6.69-5.95-6.85-5.95,6.85Z"/>
      <path class="cls-4" d="m263.75,33.96c-.43,0-.84-.18-1.12-.5l-13.62-15.32c-.5-.56-.51-1.41-.01-1.98l13.62-15.67c.57-.66,1.7-.66,2.26,0l13.62,15.67c.49.57.49,1.42-.01,1.98l-13.62,15.32c-.28.32-.69.5-1.12.5Zm-11.62-16.83l11.62,13.07,11.62-13.07-11.62-13.37-11.62,13.37Z"/>
    </g>
  </g>
  <g>
    <path class="cls-3" d="m532.75,72.64h-224.68c-.44,0-.86-.19-1.14-.53-.28-.33-.41-.78-.34-1.21l8.74-54.63-12.36,5.64,6.2,14.39c.11.25.14.51.11.78-.02.13-1.86,13.1-20.6,13.47-11.8.27-20.31-9.56-24.93-16.7-4.62,7.14-13.16,16.96-24.93,16.7-18.74-.37-20.58-13.34-20.59-13.47-.03-.27,0-.53.11-.78l6.2-14.39-12.36-5.64,8.74,54.63c.07.43-.05.88-.34,1.21-.29.33-.7.53-1.14.53H1.5c-.83,0-1.5-.67-1.5-1.5s.67-1.5,1.5-1.5h216.16l-8.9-55.65c-.09-.55.13-1.1.57-1.43.44-.33,1.03-.4,1.53-.17l16.25,7.42c.74.34,1.08,1.21.75,1.96l-6.6,15.33c.42,1.88,3.08,10.19,17.61,10.48.12,0,.24,0,.36,0,11.3,0,19.39-10.82,23.23-17.32.27-.46.76-.74,1.29-.74s1.02.28,1.29.74c3.88,6.57,12.08,17.54,23.58,17.32,14.51-.29,17.19-8.58,17.61-10.48l-6.6-15.33c-.32-.75.01-1.62.75-1.96l16.25-7.42c.5-.23,1.09-.16,1.53.17.44.34.66.88.57,1.43l-8.9,55.65h222.92c.83,0,1.5.67,1.5,1.5s-.67,1.5-1.5,1.5Z"/>
    <path class="cls-1" d="m263.75,67.1c-.43,0-.84-.18-1.12-.5l-7.95-8.94c-.5-.56-.51-1.41-.01-1.98l7.95-9.15c.28-.33.7-.52,1.13-.52h0c.43,0,.85.19,1.13.52l7.95,9.15c.49.57.49,1.42-.01,1.98l-7.95,8.94c-.28.32-.69.5-1.12.5Zm-5.95-10.45l5.95,6.69,5.95-6.69-5.95-6.85-5.95,6.85Z"/>
    <path class="cls-2" d="m263.75,33.96c-.43,0-.84-.18-1.12-.5l-13.62-15.32c-.5-.56-.51-1.41-.01-1.98l13.62-15.67c.57-.66,1.7-.66,2.26,0l13.62,15.67c.49.57.49,1.42-.01,1.98l-13.62,15.32c-.28.32-.69.5-1.12.5Zm-11.62-16.83l11.62,13.07,11.62-13.07-11.62-13.37-11.62,13.37Z"/>
  </g>
</svg>