<svg width="1057" height="1080" viewBox="0 0 1057 1080" fill="none" xmlns="http://www.w3.org/2000/svg">
    <path d="M145.033 996.608C145.033 1114.99 79.5041 1266 79.5041 1266H1203.49L1216 49H145.033C145.033 49 35.5 149.618 35.5 278C35.5 406.382 132.5 437.798 132.5 552.5C132.5 667.202 70 646.714 70 750.367C70 854.019 145.033 878.223 145.033 996.608Z" fill="#003877"/>
    <path d="M154.5 141C154.5 -2.57971 47.5 -139 47.5 -139H1171L1183.5 1337L43 1125.5C43 1125.5 154.5 1014 154.5 905.5C154.5 797 60.5 823 43 694C43 560 154.5 594.5 154.5 500C154.5 405.5 0 456.712 0 331C0 205.288 154.5 284.58 154.5 141Z" fill="black" fill-opacity="0.5"/>
</svg>
